<svg width="222" height="61" viewBox="0 0 222 61" xmlns="http://www.w3.org/2000/svg">
<path d="M60.08 54.92L60 59H34.8L34.32 56.44C35.8133 55.5333 38.1333 54.4133 41.28 53.08L37.92 44.44H18.88L15.36 53.88L22.72 54.92L22.64 59H0.88L0.4 56.44C2 55.4267 4.21333 54.36 7.04 53.24L24.72 9.8L23.76 7.32L34.24 4.44L54.4 54.12L60.08 54.92ZM35.6 38.36L28.4 19.48L21.2 38.36H35.6ZM83.1375 19.96L86.0175 19.72C90.3375 19.72 93.8842 21.5067 96.6575 25.08C99.4308 28.6 100.818 33.0267 100.818 38.36C100.818 44.8133 98.7375 50.12 94.5775 54.28C90.4175 58.44 85.0308 60.52 78.4175 60.52C73.5642 60.52 68.3108 59.4267 62.6575 57.24V7.4L56.7375 6.76L56.1775 2.92C60.6042 1.21333 65.3508 0.279996 70.4175 0.119995V0.199999L74.2575 3.72V26.12L83.1375 19.96ZM83.2175 53.64C84.9242 52.3067 86.2575 50.44 87.2175 48.04C88.2308 45.64 88.7375 43.1333 88.7375 40.52C88.7375 37.16 87.9375 34.3067 86.3375 31.96C84.7908 29.56 82.7375 28.36 80.1775 28.36C78.5242 28.36 76.5508 28.9733 74.2575 30.2V52.44C76.1775 53.3467 78.3375 53.8 80.7375 53.8L83.2175 53.64ZM103.433 39.72C103.433 33.6933 105.273 28.7867 108.953 25C112.686 21.2133 117.326 19.32 122.872 19.32C128.419 19.32 132.979 21.2667 136.553 25.16C140.179 29 141.993 33.9867 141.993 40.12C141.993 46.3067 140.206 51.2667 136.633 55C133.113 58.7333 128.606 60.6 123.113 60.6C117.513 60.6 112.819 58.6267 109.033 54.68C105.299 50.7333 103.433 45.7467 103.433 39.72ZM126.393 53.64C128.899 51.88 130.153 47.6933 130.153 41.08C130.153 36.7067 129.486 33.1333 128.153 30.36C126.873 27.5333 124.899 26.12 122.233 26.12C120.633 26.12 119.273 26.4933 118.153 27.24C116.233 29.8 115.273 33.9067 115.273 39.56C115.273 43.8267 115.966 47.32 117.353 50.04C118.739 52.7067 120.846 54.04 123.673 54.04C124.633 54.04 125.539 53.9067 126.393 53.64ZM191.964 55.16L182.124 60.28C180.791 60.2267 179.378 59.56 177.884 58.28C176.391 56.9467 175.298 55.4 174.604 53.64C169.858 56.9467 165.298 59.16 160.924 60.28C159.271 60.1733 157.511 59.6133 155.644 58.6C153.831 57.5867 152.364 56.2533 151.244 54.6C150.498 53.48 150.098 51 150.044 47.16V26.84L144.044 26.12L143.484 22.28C148.071 20.52 152.818 19.5867 157.724 19.48L161.644 23V44.92C161.644 49.56 163.351 51.88 166.764 51.88C168.684 51.88 170.978 51.2133 173.644 49.88V26.76L168.604 25.96L168.044 22.12C171.991 20.5733 176.418 19.6933 181.324 19.48L185.244 23V49.88C185.244 51.32 185.911 52.04 187.244 52.04L191.244 51.56L191.964 55.16ZM213.509 51.24C215.002 51.24 217.242 50.8933 220.229 50.2L221.109 54.12L208.789 60.28C206.495 60.3867 204.309 59.6133 202.229 57.96C200.149 56.3067 199.082 54.44 199.029 52.36V29.24L193.429 29.32L193.109 25.16C195.135 23.72 197.295 22.44 199.589 21.32L203.589 10.92H209.029L210.389 21.32H221.349L221.509 24.76L217.589 29.4H210.629V47.56C210.629 48.9467 210.842 49.9067 211.269 50.44C211.695 50.9733 212.442 51.24 213.509 51.24Z"/>
</svg>
