<svg width="273" height="57" viewBox="0 0 273 57" xmlns="http://www.w3.org/2000/svg">
<path d="M43.6 49.24L27.2 56.28C20.64 56.4933 15.2267 55.32 10.96 52.76C6.74667 50.2 3.68 46.8667 1.76 42.76C-0.16 38.6 -1.12 34.12 -1.12 29.32C-1.12 24.4133 -0.106667 19.7733 1.92 15.4C3.94667 11.0267 6.98667 7.50666 11.04 4.84C15.0933 2.12 20 0.759997 25.76 0.759997C31.9467 0.759997 37.44 2.44 42.24 5.8C42.3467 7.50667 42.24 9.8 41.92 12.68C41.6 15.56 41.12 18.0667 40.48 20.2H33.12L31.2 10.2C27.52 8.6 23.4933 7.8 19.12 7.8C16.5067 9.77333 14.5333 12.5467 13.2 16.12C11.92 19.6933 11.28 23.4533 11.28 27.4C11.28 33.7467 12.8267 38.7867 15.92 42.52C19.0133 46.2533 23.2 48.04 28.48 47.88L41.68 43.56L43.6 49.24ZM44.12 35.72C44.12 29.6933 45.96 24.7867 49.64 21C53.3733 17.2133 58.0133 15.32 63.56 15.32C69.1067 15.32 73.6667 17.2667 77.24 21.16C80.8667 25 82.68 29.9867 82.68 36.12C82.68 42.3067 80.8933 47.2667 77.32 51C73.8 54.7333 69.2933 56.6 63.8 56.6C58.2 56.6 53.5067 54.6267 49.72 50.68C45.9867 46.7333 44.12 41.7467 44.12 35.72ZM67.08 49.64C69.5867 47.88 70.84 43.6933 70.84 37.08C70.84 32.7067 70.1733 29.1333 68.84 26.36C67.56 23.5333 65.5867 22.12 62.92 22.12C61.32 22.12 59.96 22.4933 58.84 23.24C56.92 25.8 55.96 29.9067 55.96 35.56C55.96 39.8267 56.6533 43.32 58.04 46.04C59.4267 48.7067 61.5333 50.04 64.36 50.04C65.32 50.04 66.2267 49.9067 67.08 49.64ZM127.372 48.76C129.985 49.56 131.879 50.3333 133.052 51.08L132.732 55H111.612L111.372 52.28L115.772 50.28V31.88C115.772 26.6533 114.039 24.04 110.572 24.04C108.919 24.04 106.412 24.9733 103.052 26.84V48.92C104.919 49.5067 106.545 50.2267 107.932 51.08L107.612 55H85.8519L85.6119 52.28C87.0519 51.48 88.9985 50.6267 91.4519 49.72V22.84L85.4519 22.12L84.8919 18.28C89.4785 16.52 94.2252 15.5867 99.1319 15.48L103.052 19.32V23C108.439 19.0533 112.945 16.6267 116.572 15.72C119.025 15.88 121.319 16.7067 123.452 18.2C125.585 19.6933 126.812 21.6133 127.132 23.96L127.372 28.52V48.76ZM155.056 47.24C156.549 47.24 158.789 46.8933 161.776 46.2L162.656 50.12L150.336 56.28C148.042 56.3867 145.856 55.6133 143.776 53.96C141.696 52.3067 140.629 50.44 140.576 48.36V25.24L134.976 25.32L134.656 21.16C136.682 19.72 138.842 18.44 141.136 17.32L145.136 6.92H150.576L151.936 17.32H162.896L163.056 20.76L159.136 25.4H152.176V43.56C152.176 44.9467 152.389 45.9067 152.816 46.44C153.242 46.9733 153.989 47.24 155.056 47.24ZM207.363 51.16L197.603 56.28C196.323 56.2267 194.989 55.6667 193.603 54.6C192.216 53.48 191.123 52.12 190.323 50.52L181.603 56.04L179.123 56.2C175.763 56.2 172.989 55.2133 170.803 53.24C168.616 51.2667 167.523 48.8933 167.523 46.12C167.523 42.28 169.603 39.24 173.763 37L189.043 36.6V29.48C189.043 25.2133 187.789 22.4933 185.283 21.32C182.829 21.48 180.829 21.8267 179.283 22.36L177.843 31L171.123 31.24C169.949 28.3067 169.363 25.08 169.363 21.56L169.443 19.96C172.376 18.68 175.896 17.56 180.003 16.6C184.109 15.5867 187.229 15.08 189.363 15.08C191.336 15.08 193.256 15.6133 195.123 16.68C197.043 17.7467 198.589 19.1333 199.763 20.84C200.349 21.8533 200.669 23.88 200.723 26.92V46.12C200.723 47.4 201.389 48.04 202.723 48.04L206.643 47.56L207.363 51.16ZM180.803 49.08C182.936 49.0267 185.683 48.36 189.043 47.08V41.32L187.043 41.24C181.763 41.24 179.123 42.68 179.123 45.56C179.123 47 179.683 48.1733 180.803 49.08ZM231.278 56.12L228.798 56.28C223.145 56.28 218.451 54.3867 214.718 50.6C211.038 46.8133 209.198 41.96 209.198 36.04C209.198 29.96 211.038 25 214.718 21.16C218.451 17.2667 223.145 15.32 228.798 15.32C232.051 15.32 234.985 16.0667 237.598 17.56C240.265 19.0533 242.211 21.1867 243.438 23.96L234.718 29.96C231.571 25.6933 228.265 23 224.798 21.88C221.971 24.92 220.558 28.9733 220.558 34.04C220.558 38.2533 221.571 41.6933 223.598 44.36C225.678 46.9733 228.585 48.28 232.318 48.28C235.038 48.28 237.918 47.56 240.958 46.12L242.638 50.12L231.278 56.12ZM264.899 47.24C266.393 47.24 268.633 46.8933 271.619 46.2L272.499 50.12L260.179 56.28C257.886 56.3867 255.699 55.6133 253.619 53.96C251.539 52.3067 250.473 50.44 250.419 48.36V25.24L244.819 25.32L244.499 21.16C246.526 19.72 248.686 18.44 250.979 17.32L254.979 6.92H260.419L261.779 17.32H272.739L272.899 20.76L268.979 25.4H262.019V43.56C262.019 44.9467 262.233 45.9067 262.659 46.44C263.086 46.9733 263.833 47.24 264.899 47.24Z"/>
</svg>
