<svg viewBox="0 0 198 61" xmlns="http://www.w3.org/2000/svg">
<path d="M78.88 8.92L72.8 11.96L59.36 59.08C56.16 59.6667 52.3733 60.0133 48 60.12L39.44 31.96L37.68 41.24L32.16 59.08C28.96 59.6667 25.2 60.0133 20.88 60.12L5.84 11.24L0.16 10.44L0.24 6.36H24.56L25.04 8.92C23.4933 9.88 21.3067 10.9467 18.48 12.12L26.08 40.2L26.72 50.84H27.12L35.92 20.36L32.64 9.48L44.24 6.84L52.96 39.48L53.84 50.84H54L64.72 11.56L56.96 10.44L57.04 6.36H78.4L78.88 8.92ZM72.6825 39.72C72.6825 33.6933 74.5225 28.7867 78.2025 25C81.9358 21.2133 86.5758 19.32 92.1225 19.32C97.6692 19.32 102.229 21.2667 105.803 25.16C109.429 29 111.243 33.9867 111.243 40.12C111.243 46.3067 109.456 51.2667 105.883 55C102.363 58.7333 97.8558 60.6 92.3625 60.6C86.7625 60.6 82.0692 58.6267 78.2825 54.68C74.5492 50.7333 72.6825 45.7467 72.6825 39.72ZM95.6425 53.64C98.1492 51.88 99.4025 47.6933 99.4025 41.08C99.4025 36.7067 98.7358 33.1333 97.4025 30.36C96.1225 27.5333 94.1492 26.12 91.4825 26.12C89.8825 26.12 88.5225 26.4933 87.4025 27.24C85.4825 29.8 84.5225 33.9067 84.5225 39.56C84.5225 43.8267 85.2158 47.32 86.6025 50.04C87.9892 52.7067 90.0958 54.04 92.9225 54.04C93.8825 54.04 94.7892 53.9067 95.6425 53.64ZM139.614 20.6C140.894 20.12 142.228 19.88 143.614 19.88C146.388 19.88 148.628 20.68 150.334 22.28C150.068 28.1467 149.081 33.1867 147.374 37.4H141.294L139.694 28.44C136.761 30.6267 134.068 33.2133 131.614 36.2V52.36C135.348 53.1067 138.228 54.0133 140.254 55.08L139.934 59H114.334L114.094 56.28C115.588 55.4267 117.561 54.5733 120.014 53.72V26.84L114.014 26.12L113.454 22.28C118.041 20.52 122.788 19.5867 127.694 19.48L131.614 23V29.56L139.614 20.6ZM197.349 57.32L184.389 59.72C183.109 59.08 181.589 57.4267 179.829 54.76L172.869 43.48L169.349 43.72V53.08C171.162 53.72 172.629 54.3867 173.749 55.08L173.429 59H152.069L151.829 56.28C153.322 55.4267 155.295 54.5733 157.749 53.72V7.4L151.749 6.76L151.189 2.92C155.775 1.16 160.522 0.226664 165.429 0.119995L169.349 3.64V39.56L172.309 37.64L181.269 26.44L175.669 26.12L175.109 22.28C179.749 20.68 185.002 19.7467 190.869 19.48L194.069 24.44L182.069 38.92L189.909 50.36C191.295 52.1733 193.055 53.08 195.189 53.08L196.629 53L197.349 57.32Z"/>
</svg>
